<svg class="icon icon-twitter" width="20" height="18" viewBox="0 0 20 18" xmlns="http://www.w3.org/2000/svg"><path d="M6.29 17.251C13.837 17.251 17.965 10.998 17.965 5.57599C17.965 5.39799 17.965 5.22099 17.953 5.04599C18.7562 4.46451 19.4493 3.7446 20 2.91999C19.2511 3.25199 18.4566 3.46975 17.643 3.56599C18.4996 3.05305 19.1408 2.24634 19.447 1.29599C18.6417 1.77387 17.7607 2.11072 16.842 2.29199C16.2234 1.63375 15.405 1.19782 14.5136 1.05169C13.6222 0.905563 12.7075 1.05739 11.9111 1.48366C11.1147 1.90993 10.4811 2.58686 10.1083 3.40965C9.7355 4.23243 9.64437 5.15517 9.849 6.03499C8.21759 5.95323 6.6216 5.52931 5.16465 4.79076C3.70769 4.0522 2.42233 3.01551 1.392 1.74799C0.867318 2.65119 0.706589 3.72041 0.942536 4.73795C1.17848 5.7555 1.79337 6.64486 2.662 7.22499C2.00926 7.20605 1.37065 7.03045 0.8 6.71299V6.76499C0.800389 7.71228 1.1284 8.63029 1.7284 9.36334C2.3284 10.0964 3.16347 10.5994 4.092 10.787C3.48781 10.9517 2.85389 10.9756 2.239 10.857C2.50116 11.6725 3.01168 12.3856 3.69913 12.8966C4.38658 13.4076 5.21657 13.691 6.073 13.707C5.22212 14.3756 4.24779 14.8698 3.20573 15.1615C2.16367 15.4532 1.07432 15.5366 0 15.407C1.8766 16.6113 4.06019 17.2501 6.29 17.247"></path></svg>
