<?xml version="1.0" encoding="UTF-8" standalone="no"?>
<!-- Created with Inkscape (http://www.inkscape.org/) -->

<svg
   version="1.1"
   id="svg2"
   xml:space="preserve"
   width="184"
   height="70"
   viewBox="0 0 920.00004 350"
   xmlns="http://www.w3.org/2000/svg"
   xmlns:svg="http://www.w3.org/2000/svg"><defs
     id="defs6" /><g
     id="g8"
     transform="matrix(1.3333333,0,0,-1.3333333,0,793.7008)"><g
       id="g243"
       transform="translate(-86.052521,18.750002)"><g
         id="g218"
         transform="translate(0,100.99586)"><path
           d="m 186.1396,402.2391 c 10.6874,0 19.3538,-8.6639 19.3538,-19.3502 0,-10.69 -8.6664,-19.3538 -19.3538,-19.3538 -10.6889,0 -19.3527,8.6638 -19.3527,19.3538 0,10.6863 8.6638,19.3502 19.3527,19.3502"
           style="fill:#2381c0;fill-opacity:1;fill-rule:nonzero;stroke:none"
           id="path10" /><path
           d="m 244.8403,344.2249 c 0,-10.6951 -8.6562,-19.3501 -19.3564,-19.3501 -10.6713,0 -19.3488,8.6598 -19.3488,19.3501 0,10.6926 8.6837,19.3487 19.3488,19.3487 10.705,0 19.3564,-8.6598 19.3564,-19.3487"
           style="fill:#2381c0;fill-opacity:1;fill-rule:nonzero;stroke:none"
           id="path12" /><path
           d="m 186.0746,324.8011 c 10.6889,0 19.3527,-8.6675 19.3527,-19.3539 0,-10.6911 -8.6638,-19.3549 -19.3527,-19.3549 -10.6888,0 -19.3538,8.6638 -19.3538,19.3549 0,10.6864 8.665,19.3539 19.3538,19.3539"
           style="fill:#2381c0;fill-opacity:1;fill-rule:nonzero;stroke:none"
           id="path14" /><path
           d="m 197.6845,433.7138 c -49.3943,-0.004 -89.4316,-40.0399 -89.4353,-89.4342 0.004,-49.3903 40.041,-89.4251 89.4353,-89.4339 49.3954,0.009 89.4277,40.0399 89.4365,89.4339 -0.009,49.3943 -40.0411,89.4303 -89.4365,89.4342 z m 50.3348,-139.7693 v 0 c -12.9121,-12.897 -30.6519,-20.8479 -50.3399,-20.853 -19.6866,0.005 -37.4253,7.9611 -50.3374,20.853 -12.8948,12.9147 -20.8442,30.6547 -20.8482,50.3351 0.004,19.6841 7.9534,37.4241 20.8531,50.3388 12.9121,12.8971 30.6521,20.8494 50.3376,20.8531 19.6866,-0.004 37.4267,-7.956 50.3388,-20.8531 12.8996,-12.9147 20.8491,-30.6547 20.853,-50.3388 -0.009,-19.6804 -7.9571,-37.4204 -20.857,-50.3351"
           style="fill:#2381c0;fill-opacity:1;fill-rule:nonzero;stroke:none"
           id="path16" /></g><path
         d="m 363.2516,539.02561 h 4.4141 v -187.5 h -4.4141 z"
         style="fill:#2381c0;fill-opacity:1;fill-rule:evenodd;stroke:none;stroke-width:0.849152"
         id="path32" /><g
         id="g227"
         transform="translate(0,110.57679)"><path
           d="m 443.91936,292.0489 c 16.5184,0 41.5233,-2.9951 52.8778,5.8073 8.6749,6.7249 10.2917,24.0086 3.352,31.9813 -3.9918,4.5856 -5.6359,4.4737 -8.1372,6.6464 14.4003,5.9964 14.2849,27.0414 2.8171,36.0649 -10.2521,8.0669 -35.8328,5.2898 -50.5295,5.3141 -1.152,-4.8957 -0.3802,-74.5795 -0.3802,-85.814 z m 13.0283,49.7196 c 4.5179,-0.5068 17.7517,-0.5442 22.1443,0.0499 14.7467,1.9936 14.7614,21.7154 0.614,24.0401 -3.9949,0.6565 -18.5933,0.6174 -22.7506,0.0989 l -0.008,-24.1889 z m 0.0168,-37.9281 c 5.3617,-0.3441 18.4215,-0.5598 23.2066,0.1681 6.7853,1.0318 11.2584,5.3379 11.2768,12.7528 0.0187,7.4786 -4.5445,11.9282 -11.1379,12.865 -4.8152,0.684 -18.1476,0.5675 -23.1729,0.1384 z"
           style="fill:#2aa442;fill-opacity:1;fill-rule:evenodd;stroke:none"
           id="path40" /><path
           d="m 572.81216,345.01 c 2.5823,-2.8956 4.1799,-5.2198 7.4823,-7.282 3.3883,1.8332 5.258,7.3474 17.8648,5.3062 7.7318,-1.2518 10.0468,-6.961 8.7596,-15.4355 -8.1553,0 -19.3856,0.8192 -26.4776,-1.8113 -18.3532,-6.8074 -13.0011,-40.3438 16.9878,-33.8701 5.2512,1.1339 6.6095,3.4393 9.9059,5.0579 l 0.1038,-4.6313 c 2.3902,-0.661 9.1681,-0.2976 12.0331,-0.2953 0.0133,9.6508 0.003,19.3019 0.003,28.9525 0,8.9918 0.8289,18.9864 -4.0422,25.2431 -6.0004,7.7071 -29.9149,13.3806 -42.6203,-1.2342 z m 34.3655,-25.9677 c -5.2064,0.007 -16.1263,0.5936 -20.3468,-1.0601 -5.0459,-1.9769 -6.8941,-9.4303 -2.6739,-13.597 3.5467,-3.5016 12.7125,-3.6102 17.5518,-1.2719 6.0486,2.9225 5.4788,8.0309 5.4689,15.929"
           style="fill:#2aa442;fill-opacity:1;fill-rule:evenodd;stroke:none"
           id="path42" /><path
           d="m 640.31726,307.8679 c -2.249,-1.0514 -6.9381,-5.4343 -7.9549,-8.3821 4.6922,-3.0209 7.0424,-5.5037 14.5721,-7.1504 6.046,-1.322 14.4935,-1.4079 20.5282,0.125 14.9598,3.7999 18.9482,16.9575 13.9507,26.5366 -6.9596,13.3407 -26.1544,6.3136 -32.4916,12.009 -2.9837,2.6815 -3.6272,11.2019 6.378,12.4446 8.6295,1.0721 12.494,-1.6251 18.3747,-4.1284 2.0331,2.6975 5.4284,4.8198 6.7542,7.8061 -9.2189,9.4555 -40.8535,11.2354 -44.8152,-7.9767 -3.3866,-16.4228 9.1777,-20.1379 22.1751,-21.2227 6.6884,-0.5582 13.887,-0.4261 13.3535,-8.1156 -0.4403,-6.3479 -7.5731,-8.0354 -13.8906,-7.9498 -9.1602,0.1248 -11.3338,2.3976 -16.9342,6.0044"
           style="fill:#2aa442;fill-opacity:1;fill-rule:evenodd;stroke:none"
           id="path44" /><path
           d="m 753.85586,292.2002 -0.0252,10.207 c -14.3102,1.0514 -12.0232,-2.5095 -12.0232,32.0105 0,10.8545 1.2733,33.9341 -0.2426,43.3432 l -11.8208,0.0802 c -0.7597,-4.9048 -0.2341,-46.148 -0.2341,-54.7217 0,-21.64 -0.5777,-32.9975 24.3459,-30.9192"
           style="fill:#2aa442;fill-opacity:1;fill-rule:evenodd;stroke:none"
           id="path46" /><path
           d="m 522.27156,292.0489 h 12.2885 c 0,11.878 -0.7697,26.5504 0.0754,38.0882 0.3977,5.4272 3.1427,9.8706 7.1563,11.6995 6.3201,2.8808 10.6274,-0.1474 14.0491,-2.8596 2.4381,2.6195 7.4781,6.4599 9.125,9.809 -4.7421,2.7346 -7.3627,5.5528 -15.7706,5.0184 -8.075,-0.513 -10.6486,-3.5892 -14.8116,-6.7668 l -0.2041,6.0879 -11.5276,0.0346 c -0.9805,-4.1697 -0.392,-52.7405 -0.3804,-61.1112"
           style="fill:#2aa442;fill-opacity:1;fill-rule:evenodd;stroke:none"
           id="path48" /><path
           d="m 698.10036,292.0489 h 12.291 c 0,8.4874 0.6069,57.0313 -0.4022,61.107 h -11.4917 c -1,-4.1953 -0.3971,-52.6805 -0.3971,-61.107"
           style="fill:#2aa442;fill-opacity:1;fill-rule:evenodd;stroke:none"
           id="path50" /><path
           d="m 697.80526,365.2876 12.6394,-0.0805 0.3492,12.8344 -13.0609,0.1412 z"
           style="fill:#2aa442;fill-opacity:1;fill-rule:evenodd;stroke:none"
           id="path52" /></g></g></g></svg>
